Coordinates
version=1
nRows=24
nColumns=22
inDegrees=yes

Units are S.I. units (second, meters, Newtons, ...)
If the header above contains a line with 'inDegrees', this indicates whether rotational values are in degrees (yes) or radians (no).

endheader
time	pelvis_tilt	pelvis_list	pelvis_rotation	pelvis_tx	pelvis_ty	pelvis_tz	hip_flexion_r	hip_adduction_r	hip_rotation_r	knee_angle_r	ankle_angle_r	subtalar_angle_r	hip_flexion_l	hip_adduction_l	hip_rotation_l	knee_angle_l	ankle_angle_l	subtalar_angle_l	lumbar_extension	lumbar_bending	lumbar_rotation
      1.95000000	      5.89642246	     -4.42031086	     41.24434203	      0.60112192	      1.00881139	      0.56824039	      0.82002495	      8.24869953	     -4.83901901	    -16.45636269	     12.65507960	     -1.59095164	     22.20799413	    -10.13013179	     -7.08934336	    -46.08789104	     11.53105053	      0.24800127	    -17.11426812	      8.79194021	      5.90751215
      1.96000000	      5.86369687	     -4.32083405	     41.69687078	      0.60438001	      1.00870427	      0.56401832	      0.20253317	      8.14083424	     -5.19348761	    -15.98118176	     12.81297941	     -1.53319845	     22.59777871	    -10.06919402	     -7.74771516	    -44.50329117	     11.51737234	      0.53092435	    -17.23995781	      8.74457618	      6.07173170
      1.97000000	      5.86403710	     -4.21979129	     42.14620840	      0.60767625	      1.00857982	      0.55970499	     -0.45268628	      8.06141086	     -5.53445085	    -15.50225770	     12.98954590	     -1.42022647	     22.92370125	    -10.03686424	     -8.45380682	    -42.89163628	     11.46064125	      0.81946892	    -17.38862896	      8.71378044	      6.21162569
      1.98000000	      5.81983896	     -4.12874712	     42.59126213	      0.61094921	      1.00834944	      0.55527109	     -1.05521659	      7.95582913	     -5.88791823	    -15.05288149	     13.17182818	     -1.29522974	     23.24689414	     -9.95275416	     -9.15273919	    -41.23769068	     11.34469645	      1.01455625	    -17.48242019	      8.65839960	      6.35243145
      1.99000000	      5.79215719	     -4.04139870	     43.03134804	      0.61426601	      1.00807478	      0.55073218	     -1.67689375	      7.87007819	     -6.22264079	    -14.60275169	     13.34385046	     -1.13414144	     23.52433708	     -9.88109541	     -9.89304075	    -39.57339795	     11.17811247	      1.16752969	    -17.57706975	      8.61272320	      6.46415498
      2.00000000	      5.80281702	     -3.94116645	     43.46377830	      0.61760532	      1.00779232	      0.54606523	     -2.34923302	      7.80301811	     -6.53899691	    -14.14917324	     13.52161180	     -0.90209001	     23.72803323	     -9.82192684	    -10.67575111	    -37.91060278	     10.98869950	      1.28390764	    -17.70764760	      8.58763329	      6.54916369
      2.01000000	      5.78078677	     -3.86240977	     43.88900119	      0.62094705	      1.00738702	      0.54130534	     -2.96964391	      7.72771146	     -6.85976499	    -13.72692306	     13.69269887	     -0.67737947	     23.94161684	     -9.73090646	    -11.44549309	    -36.25014136	     10.72522554	      1.33583405	    -17.78508374	      8.54972344	      6.63260684
      2.02000000	      5.76749566	     -3.78358272	     44.30602849	      0.62431091	      1.00692386	      0.53643348	     -3.59753859	      7.65973651	     -7.17373266	    -13.31704430	     13.85196646	     -0.42150086	     24.11624013	     -9.62954031	    -12.22569930	    -34.60477559	     10.42143096	      1.35681859	    -17.86010334	      8.51441998	      6.70400641
      2.03000000	      5.75661621	     -3.71666474	     44.71477436	      0.62769211	      1.00637445	      0.53147063	     -4.21170102	      7.60299076	     -7.48581873	    -12.93187751	     14.01286953	     -0.16170598	     24.27348738	     -9.52124845	    -12.99707889	    -32.99308792	     10.09814782	      1.36645602	    -17.91947431	      8.48507489	      6.77576250
      2.04000000	      5.76141671	     -3.65609497	     45.11535813	      0.63108968	      1.00576092	      0.52641287	     -4.82864070	      7.56378412	     -7.78764075	    -12.56657382	     14.16111476	      0.11262048	     24.40246994	     -9.41451542	    -13.76228319	    -31.43081695	      9.77739425	      1.38133722	    -17.97846228	      8.46830534	      6.85068697
      2.05000000	      5.78238389	     -3.60288017	     45.50758977	      0.63450675	      1.00507781	      0.52126599	     -5.44321632	      7.54332929	     -8.08041817	    -12.22950472	     14.30677154	      0.38657703	     24.50770777	     -9.31324072	    -14.51664421	    -29.93510172	      9.48559090	      1.41901299	    -18.03564243	      8.46370726	      6.93283390
      2.06000000	      5.80653764	     -3.56240246	     45.88829036	      0.63792815	      1.00431495	      0.51603747	     -6.03320058	      7.53381164	     -8.36662641	    -11.93449596	     14.44336983	      0.63409353	     24.60184101	     -9.20875127	    -15.24278874	    -28.51146858	      9.21852229	      1.49074836	    -18.07833940	      8.46421483	      7.04058814
      2.07000000	      5.87160638	     -3.51340442	     46.26041871	      0.64139501	      1.00352177	      0.51070064	     -6.65472400	      7.55073584	     -8.63788333	    -11.66591582	     14.58042974	      0.90782363	     24.64844130	     -9.13135669	    -15.98398477	    -27.19594764	      9.03614508	      1.60824919	    -18.14824787	      8.48368571	      7.13866260
      2.08000000	      5.96897504	     -3.47098160	     46.62131499	      0.64486891	      1.00267698	      0.50525795	     -7.28110844	      7.59500949	     -8.88792575	    -11.43532645	     14.71784900	      1.20409211	     24.66919870	     -9.08106619	    -16.71466888	    -26.00039050	      8.92981803	      1.78365328	    -18.23293368	      8.53047956	      7.23712910
      2.09000000	      6.05469964	     -3.43065192	     46.95512917	      0.64838114	      1.00176185	      0.49970276	     -7.86414461	      7.62309432	     -9.13474023	    -11.28310385	     14.85365591	      1.46456946	     24.67174761	     -9.01955684	    -17.42785368	    -24.90668431	      8.83610919	      1.98082237	    -18.29194446	      8.55436601	      7.36428030
      2.10000000	      6.17147630	     -3.39339102	     47.26870639	      0.65191254	      1.00081254	      0.49401399	     -8.44686148	      7.66990796	     -9.35068149	    -11.18431077	     14.98158340	      1.75380100	     24.64034966	     -8.98741102	    -18.13734504	    -23.95096783	      8.79289976	      2.21599637	    -18.36557511	      8.60121076	      7.48979658
      2.11000000	      6.29573834	     -3.36012655	     47.55496826	      0.65547012	      0.99982104	      0.48818754	     -8.99942129	      7.71254447	     -9.53395953	    -11.16236026	     15.11081319	      2.05827822	     24.58172206	     -8.96532214	    -18.82646596	    -23.12839652	      8.76000835	      2.46628226	    -18.43052805	      8.64693989	      7.62364090
      2.12000000	      6.42885001	     -3.33147934	     47.82043709	      0.65906929	      0.99879757	      0.48219614	     -9.52765677	      7.75344762	     -9.68173036	    -11.20972814	     15.23392934	      2.38868920	     24.49612469	     -8.95455756	    -19.48632347	    -22.45158063	      8.72126608	      2.71500811	    -18.47962383	      8.69539638	      7.75884091
      2.13000000	      6.56051920	     -3.30537933	     48.06062649	      0.66268734	      0.99775214	      0.47604889	    -10.01414894	      7.77886748	     -9.79915521	    -11.34497684	     15.35488218	      2.73259475	     24.38419654	     -8.94586678	    -20.11938081	    -21.91922529	      8.66489934	      2.91819859	    -18.51101019	      8.73662324	      7.89897748
      2.14000000	      6.68979454	     -3.28250619	     48.28347630	      0.66631648	      0.99669622	      0.46974975	    -10.44958870	      7.78848914	     -9.88704942	    -11.58325755	     15.46549035	      3.07746646	     24.25025379	     -8.93737531	    -20.70529252	    -21.53914093	      8.57840090	      3.03379723	    -18.52378227	      8.77148009	      8.03003450
      2.15000000	      6.81285065	     -3.24281148	     48.50298387	      0.66996543	      0.99567314	      0.46324215	    -10.87610694	      7.77043086	     -9.94885252	    -11.87101974	     15.56460820	      3.47794120	     24.07699102	     -8.90452455	    -21.21401434	    -21.30930392	      8.43825703	      3.03930478	    -18.51925513	      8.78685763	      8.15512680
      2.16000000	      6.92488646	     -3.18734766	     48.73762501	      0.67362948	      0.99468613	      0.45655954	    -11.28169501	      7.72814934	    -10.00372522	    -12.21976119	     15.64693511	      3.93125991	     23.88167419	     -8.84371555	    -21.62351885	    -21.23808957	      8.23678509	      2.85811168	    -18.49610840	      8.77382994	      8.24218935
      2.17000000	      7.03321787	     -3.11416425	     48.99906556	      0.67726096	      0.99375104	      0.44968833	    -11.66329441	      7.66596906	    -10.05285746	    -12.64646754	     15.69248616	      4.44647787	     23.67637962	     -8.75544552	    -21.88961404	    -21.34572723	      7.99817801	      2.40181305	    -18.46266676	      8.75034900	      8.26722814
      2.18000000	      7.08919998	     -3.00818239	     49.27456701	      0.68087818	      0.99288569	      0.44265220	    -11.98509271	      7.53266992	    -10.10014884	    -13.17784563	     15.72988914	      4.94255018	     23.46312337	     -8.58797067	    -21.99812269	    -21.57917070	      7.65323947	      1.73775284	    -18.39546911	      8.65389880	      8.25015073
